<svg width="60" height="60" viewBox="0 0 60 60" fill="none" xmlns="http://www.w3.org/2000/svg">
<path d="M56.25 48.7501H52.5V31.8751L53.0484 32.4236C53.4009 32.7754 53.8787 32.9728 54.3767 32.9724C54.8747 32.9719 55.3521 32.7737 55.7039 32.4212C56.0557 32.0688 56.2531 31.591 56.2527 31.093C56.2523 30.595 56.054 30.1176 55.7016 29.7657L32.6508 6.72199C31.9476 6.01926 30.9941 5.62451 30 5.62451C29.0059 5.62451 28.0524 6.01926 27.3492 6.72199L4.29844 29.7657C3.94692 30.1176 3.74957 30.5946 3.74979 31.092C3.75001 31.5893 3.94778 32.0662 4.29961 32.4177C4.65144 32.7692 5.12849 32.9666 5.62583 32.9663C6.12317 32.9661 6.60005 32.7684 6.95156 32.4165L7.5 31.8751V48.7501H3.75C3.25272 48.7501 2.77581 48.9477 2.42417 49.2993C2.07254 49.6509 1.875 50.1278 1.875 50.6251C1.875 51.1224 2.07254 51.5993 2.42417 51.9509C2.77581 52.3026 3.25272 52.5001 3.75 52.5001H56.25C56.7473 52.5001 57.2242 52.3026 57.5758 51.9509C57.9275 51.5993 58.125 51.1224 58.125 50.6251C58.125 50.1278 57.9275 49.6509 57.5758 49.2993C57.2242 48.9477 56.7473 48.7501 56.25 48.7501ZM11.25 28.1251L30 9.37512L48.75 28.1251V48.7501H37.5V35.6251C37.5 35.1278 37.3025 34.6509 36.9508 34.2993C36.5992 33.9477 36.1223 33.7501 35.625 33.7501H24.375C23.8777 33.7501 23.4008 33.9477 23.0492 34.2993C22.6975 34.6509 22.5 35.1278 22.5 35.6251V48.7501H11.25V28.1251ZM33.75 48.7501H26.25V37.5001H33.75V48.7501Z" fill="#3B7D5D"/>
</svg>
