<?xml version="1.0" encoding="UTF-8"?>
<svg version="1.1" viewBox="0 0 2048 2048" width="512" height="512" xmlns="http://www.w3.org/2000/svg">
<path transform="translate(479,63)" d="m0 0h1024l12 2 10 6 5 4v2h2v2l4 2 88 88v2h2v2h2v2h2v2h2v2h2v2h2v2h2v2h2v2h2v2h2v2h2v2h2v2h2v2h2v2h2v2h2v2h2v2h2v2h2v2h2v2h2v2h2v2h2v2h2v2h2v2h2v2l4 2 28 28v2h2v2h2v2h2v2h2v2h2v2h2v2h2v2h2v2h2v2h2v2l4 2v2l4 2 44 44 8 10 4 9 1 50-1 1373-7 14-8 7-8 3-6 1h-162l-1 167-7 14-7 6-9 4-6 1h-1289l-11-4-9-8-5-9-2-13v-1664l2-9 4-8 3-4h2v-2l10-6 11-2h160v-161l2-9 4-8 5-5 5-4 8-4zm34 65-1 2v1597l1212 1 3-1v-1343l-229-1-11-4-8-7-6-12-1-10-1-222zm1023 47v144h145l-6-7-124-124h-2l-2-4-8-8zm-1215 145-1 2v1597l1212 1 3-1v-127l-1061-1-11-4-8-7-6-12-1-11-1-1437z"/>
<path transform="translate(1302,959)" d="m0 0h21l28 2 32 5 28 7 24 8 26 11 22 11 20 12 11 8 14 10 13 11 10 9 12 11 15 16 9 11 15 20 11 17 13 23 10 21 10 26 8 27 6 29 3 21 1 13v48l-3 26-4 23-6 25-8 24-9 22-8 16-10 19-10 16-10 14-10 13-12 14-7 8h-2l-2 4-8 8-8 7-10 9-16 12-16 11-13 8-22 12-21 10-30 11-31 8-21 4-23 3-14 1h-38l-24-2-29-5-28-7-26-9-21-9-16-8-20-11-21-14-13-10-11-9-12-11-8-7-4-4v-2h-2l-7-8-8-9-11-14-11-15-12-19-12-22-11-24-10-28-8-30-5-29-2-19-1-17v-20l2-29 4-26 6-26 9-29 12-29 10-20 12-20 8-12 8-11 11-14 9-11h2l2-4 22-22 11-9 15-12 19-13 20-12 19-10 26-11 27-9 23-6 30-5 19-2zm5 65-21 1-23 3-23 5-20 6-24 9-24 12-21 13-12 9-16 13-4 3v2l-4 2-14 14-7 8-13 16-14 21-11 19-11 24-11 33-6 27-3 26-1 16v15l3 32 5 26 7 24 9 24 9 19 13 22 12 17 13 16 14 15 9 9 11 9 14 11 15 10 15 9 22 11 26 10 25 7 21 4 27 3h38l25-3 25-5 29-9 22-9 19-10 17-10 14-10 10-8 13-11 6-5 6-7 5-5 12-13 9-12 9-13 9-15 12-23 8-20 7-21 6-26 3-21 1-12v-38l-3-26-5-25-7-24-10-25-12-24-12-19-13-18-11-12-7-8-15-15-11-9-13-10-20-13-22-12-23-10-24-8-21-5-16-3-19-2-16-1z"/>
<path transform="translate(863,447)" d="m0 0h638l11 1 12 6 8 9 3 6 1 4v15l-6 12-7 7-10 4-5 1h-650l-11-4-9-8-6-12v-16l4-10 6-7 14-7z"/>
<path transform="translate(671,831)" d="m0 0h604l16 2 10 6 7 8 4 10v15l-6 12-9 8-7 3-6 1h-618l-11-4-9-8-6-12v-16l4-10 6-7 14-7z"/>
<path transform="translate(1470,1151)" d="m0 0 10 1 9 4 8 7 5 7 2 6v16l-6 12-7 8-7 6-5 6-7 6-5 6-7 6-5 6-8 7-27 27-5 6-7 6-5 6-8 7-159 159-10 5-4 1h-13l-10-4-9-8-22-33-29-43-13-20-6-12-1-11 2-9 6-10 7-6 9-4 11-1 12 3 8 6 7 8 26 39 13 19v2l3-1 3-4h2v-2h2l2-4 218-218 10-6z"/>
<path transform="translate(1151,639)" d="m0 0h413l12 1 12 6 8 9 4 9v16l-6 12-9 8-8 3-6 1h-425l-11-4-9-8-6-12v-16l4-9 4-6 9-6 7-3z"/>
<path transform="translate(671,639)" d="m0 0h348l16 2 10 6 7 8 4 10v15l-6 12-9 8-8 3-6 1h-361l-11-4-9-8-6-12v-16l4-10 6-7 14-7z"/>
<path transform="translate(959,255)" d="m0 0h317l15 2 10 6 7 8 4 10v15l-6 12-9 8-8 3-6 1h-329l-11-4-9-8-6-12v-16l4-10 6-7 14-7z"/>
<path transform="translate(671,1023)" d="m0 0h285l12 1 12 6 8 9 4 9v16l-6 12-9 8-7 3-6 1h-298l-11-4-9-8-6-12v-16l4-10 6-7 14-7z"/>
<path transform="translate(671,1407)" d="m0 0h221l12 1 12 6 8 9 4 9v16l-6 12-9 8-7 3-6 1h-234l-11-4-9-8-6-12v-16l4-9 6-8 14-7z"/>
<path transform="translate(671,1215)" d="m0 0h188l13 1 12 6 8 9 4 9v16l-6 12-9 8-7 3-6 1h-202l-11-4-9-8-6-12v-16l4-10 6-7 14-7z"/>
<path transform="translate(1407,831)" d="m0 0h157l12 1 12 6 8 9 4 9v16l-6 12-7 7-9 4-6 1h-170l-11-4-9-8-6-12v-16l4-9 5-7 10-6 5-2z"/>
</svg>
