<svg width="60" height="60" viewBox="0 0 60 60" fill="none" xmlns="http://www.w3.org/2000/svg">
<path d="M37.5 26.25H48.75C49.7446 26.25 50.6984 25.8549 51.4016 25.1516C52.1049 24.4484 52.5 23.4946 52.5 22.5V11.25C52.5 10.2554 52.1049 9.30161 51.4016 8.59835C50.6984 7.89509 49.7446 7.5 48.75 7.5H37.5C36.5054 7.5 35.5516 7.89509 34.8484 8.59835C34.1451 9.30161 33.75 10.2554 33.75 11.25V15H30C28.5082 15 27.0774 15.5926 26.0225 16.6475C24.9676 17.7024 24.375 19.1332 24.375 20.625V28.125H16.875V26.25C16.875 25.2554 16.4799 24.3016 15.7766 23.5984C15.0734 22.8951 14.1196 22.5 13.125 22.5H5.625C4.63044 22.5 3.67661 22.8951 2.97335 23.5984C2.27009 24.3016 1.875 25.2554 1.875 26.25V33.75C1.875 34.7446 2.27009 35.6984 2.97335 36.4016C3.67661 37.1049 4.63044 37.5 5.625 37.5H13.125C14.1196 37.5 15.0734 37.1049 15.7766 36.4016C16.4799 35.6984 16.875 34.7446 16.875 33.75V31.875H24.375V39.375C24.375 40.8668 24.9676 42.2976 26.0225 43.3525C27.0774 44.4074 28.5082 45 30 45H33.75V48.75C33.75 49.7446 34.1451 50.6984 34.8484 51.4016C35.5516 52.1049 36.5054 52.5 37.5 52.5H48.75C49.7446 52.5 50.6984 52.1049 51.4016 51.4016C52.1049 50.6984 52.5 49.7446 52.5 48.75V37.5C52.5 36.5054 52.1049 35.5516 51.4016 34.8484C50.6984 34.1451 49.7446 33.75 48.75 33.75H37.5C36.5054 33.75 35.5516 34.1451 34.8484 34.8484C34.1451 35.5516 33.75 36.5054 33.75 37.5V41.25H30C29.5027 41.25 29.0258 41.0525 28.6742 40.7008C28.3225 40.3492 28.125 39.8723 28.125 39.375V20.625C28.125 20.1277 28.3225 19.6508 28.6742 19.2992C29.0258 18.9475 29.5027 18.75 30 18.75H33.75V22.5C33.75 23.4946 34.1451 24.4484 34.8484 25.1516C35.5516 25.8549 36.5054 26.25 37.5 26.25ZM13.125 33.75H5.625V26.25H13.125V33.75ZM37.5 37.5H48.75V48.75H37.5V37.5ZM37.5 11.25H48.75V22.5H37.5V11.25Z" fill="#3B7D5D"/>
</svg>
