<svg width="60" height="60" viewBox="0 0 60 60" fill="none" xmlns="http://www.w3.org/2000/svg">
<path d="M52.9359 24.0984C52.0523 23.175 51.1383 22.2234 50.7938 21.3867C50.475 20.6203 50.4562 19.35 50.4375 18.1195C50.4023 15.832 50.3648 13.2398 48.5625 11.4375C46.7602 9.63516 44.168 9.59766 41.8805 9.5625C40.65 9.54375 39.3797 9.525 38.6133 9.20625C37.7789 8.86172 36.825 7.94766 35.9016 7.06406C34.2844 5.51016 32.4469 3.75 30 3.75C27.5531 3.75 25.718 5.51016 24.0984 7.06406C23.175 7.94766 22.2234 8.86172 21.3867 9.20625C20.625 9.525 19.35 9.54375 18.1195 9.5625C15.832 9.59766 13.2398 9.63516 11.4375 11.4375C9.63516 13.2398 9.60938 15.832 9.5625 18.1195C9.54375 19.35 9.525 20.6203 9.20625 21.3867C8.86172 22.2211 7.94766 23.175 7.06406 24.0984C5.51016 25.7156 3.75 27.5531 3.75 30C3.75 32.4469 5.51016 34.282 7.06406 35.9016C7.94766 36.825 8.86172 37.7766 9.20625 38.6133C9.525 39.3797 9.54375 40.65 9.5625 41.8805C9.59766 44.168 9.63516 46.7602 11.4375 48.5625C13.2398 50.3648 15.832 50.4023 18.1195 50.4375C19.35 50.4562 20.6203 50.475 21.3867 50.7938C22.2211 51.1383 23.175 52.0523 24.0984 52.9359C25.7156 54.4898 27.5531 56.25 30 56.25C32.4469 56.25 34.282 54.4898 35.9016 52.9359C36.825 52.0523 37.7766 51.1383 38.6133 50.7938C39.3797 50.475 40.65 50.4562 41.8805 50.4375C44.168 50.4023 46.7602 50.3648 48.5625 48.5625C50.3648 46.7602 50.4023 44.168 50.4375 41.8805C50.4562 40.65 50.475 39.3797 50.7938 38.6133C51.1383 37.7789 52.0523 36.825 52.9359 35.9016C54.4898 34.2844 56.25 32.4469 56.25 30C56.25 27.5531 54.4898 25.718 52.9359 24.0984ZM50.2289 33.307C49.1063 34.4789 47.9437 35.6906 47.3273 37.1789C46.7367 38.6086 46.7109 40.2422 46.6875 41.8242C46.6641 43.4648 46.6383 45.1828 45.9094 45.9094C45.1805 46.6359 43.4742 46.6641 41.8242 46.6875C40.2422 46.7109 38.6086 46.7367 37.1789 47.3273C35.6906 47.9437 34.4789 49.1063 33.307 50.2289C32.1352 51.3516 30.9375 52.5 30 52.5C29.0625 52.5 27.8555 51.3469 26.693 50.2289C25.5305 49.1109 24.3094 47.9437 22.8211 47.3273C21.3914 46.7367 19.7578 46.7109 18.1758 46.6875C16.5352 46.6641 14.8172 46.6383 14.0906 45.9094C13.3641 45.1805 13.3359 43.4742 13.3125 41.8242C13.2891 40.2422 13.2633 38.6086 12.6727 37.1789C12.0562 35.6906 10.8937 34.4789 9.77109 33.307C8.64844 32.1352 7.5 30.9375 7.5 30C7.5 29.0625 8.65312 27.8555 9.77109 26.693C10.8891 25.5305 12.0562 24.3094 12.6727 22.8211C13.2633 21.3914 13.2891 19.7578 13.3125 18.1758C13.3359 16.5352 13.3617 14.8172 14.0906 14.0906C14.8195 13.3641 16.5258 13.3359 18.1758 13.3125C19.7578 13.2891 21.3914 13.2633 22.8211 12.6727C24.3094 12.0562 25.5211 10.8937 26.693 9.77109C27.8648 8.64844 29.0625 7.5 30 7.5C30.9375 7.5 32.1445 8.65312 33.307 9.77109C34.4695 10.8891 35.6906 12.0562 37.1789 12.6727C38.6086 13.2633 40.2422 13.2891 41.8242 13.3125C43.4648 13.3359 45.1828 13.3617 45.9094 14.0906C46.6359 14.8195 46.6641 16.5258 46.6875 18.1758C46.7109 19.7578 46.7367 21.3914 47.3273 22.8211C47.9437 24.3094 49.1063 25.5211 50.2289 26.693C51.3516 27.8648 52.5 29.0625 52.5 30C52.5 30.9375 51.3469 32.1445 50.2289 33.307ZM40.7016 23.0484C40.8759 23.2226 41.0142 23.4294 41.1086 23.657C41.2029 23.8846 41.2515 24.1286 41.2515 24.375C41.2515 24.6214 41.2029 24.8654 41.1086 25.093C41.0142 25.3206 40.8759 25.5274 40.7016 25.7016L27.5766 38.8266C27.4024 39.0009 27.1956 39.1392 26.968 39.2336C26.7404 39.3279 26.4964 39.3765 26.25 39.3765C26.0036 39.3765 25.7596 39.3279 25.532 39.2336C25.3044 39.1392 25.0976 39.0009 24.9234 38.8266L19.2984 33.2016C18.9466 32.8497 18.749 32.3726 18.749 31.875C18.749 31.3774 18.9466 30.9003 19.2984 30.5484C19.6503 30.1966 20.1274 29.999 20.625 29.999C21.1226 29.999 21.5997 30.1966 21.9516 30.5484L26.25 34.8492L38.0484 23.0484C38.2226 22.8741 38.4294 22.7358 38.657 22.6415C38.8846 22.5471 39.1286 22.4985 39.375 22.4985C39.6214 22.4985 39.8654 22.5471 40.093 22.6415C40.3206 22.7358 40.5274 22.8741 40.7016 23.0484Z" fill="#3B7D5D"/>
</svg>
